{
    "asset": {
        "copyright": "2020 (c) Adobe Inc.",
        "generator": "Adobe Dimension - 695fff5264e3b00eaca24d3119e0b5e4c864ae29",
        "version": "2.0",
        "extensions": {
            "KHR_xmp": {
                "packet": 0
            }
        }
    },
    "accessors": [
        {
            "bufferView": 0,
            "componentType": 5126,
            "count": 9504,
            "type": "VEC3",
            "max": [
                0.10017989575862885,
                0.020706389099359514,
                0.10017989575862885
            ],
            "min": [
                -0.10017989575862885,
                -0.00036475999513641,
                -0.10017989575862885
            ]
        },
        {
            "bufferView": 1,
            "componentType": 5126,
            "count": 9504,
            "type": "VEC3"
        },
        {
            "bufferView": 2,
            "componentType": 5126,
            "count": 9504,
            "type": "VEC2"
        },
        {
            "bufferView": 3,
            "componentType": 5125,
            "count": 54084,
            "type": "SCALAR",
            "max": [
                9503.0
            ],
            "min": [
                0.0
            ]
        },
        {
            "bufferView": 4,
            "componentType": 5126,
            "count": 4800,
            "type": "VEC3",
            "max": [
                0.09534179419279099,
                0.09470702707767487,
                0.0
            ],
            "min": [
                0.00634765625,
                -0.0015234336024150253,
                -0.009999999776482582
            ]
        },
        {
            "bufferView": 5,
            "componentType": 5126,
            "count": 4800,
            "type": "VEC3"
        },
        {
            "bufferView": 6,
            "componentType": 5126,
            "count": 4800,
            "type": "VEC2"
        },
        {
            "bufferView": 7,
            "componentType": 5125,
            "count": 2400,
            "type": "SCALAR",
            "max": [
                4799.0
            ],
            "min": [
                1.0
            ]
        },
        {
            "bufferView": 8,
            "componentType": 5125,
            "count": 1200,
            "type": "SCALAR",
            "max": [
                4789.0
            ],
            "min": [
                0.0
            ]
        },
        {
            "bufferView": 9,
            "componentType": 5125,
            "count": 1200,
            "type": "SCALAR",
            "max": [
                4798.0
            ],
            "min": [
                8.0
            ]
        },
        {
            "bufferView": 10,
            "componentType": 5126,
            "count": 19680,
            "type": "VEC3",
            "max": [
                0.12060546875,
                0.028749998658895494,
                0.0
            ],
            "min": [
                0.0043750000186264519,
                -0.00046874998952262104,
                -0.009999999776482582
            ]
        },
        {
            "bufferView": 11,
            "componentType": 5126,
            "count": 19680,
            "type": "VEC3"
        },
        {
            "bufferView": 12,
            "componentType": 5126,
            "count": 19680,
            "type": "VEC2"
        },
        {
            "bufferView": 13,
            "componentType": 5125,
            "count": 9858,
            "type": "SCALAR",
            "max": [
                19673.0
            ],
            "min": [
                1.0
            ]
        },
        {
            "bufferView": 14,
            "componentType": 5125,
            "count": 4911,
            "type": "SCALAR",
            "max": [
                19679.0
            ],
            "min": [
                0.0
            ]
        },
        {
            "bufferView": 15,
            "componentType": 5125,
            "count": 4911,
            "type": "SCALAR",
            "max": [
                19678.0
            ],
            "min": [
                4.0
            ]
        },
        {
            "bufferView": 16,
            "componentType": 5126,
            "count": 6156,
            "type": "VEC3",
            "max": [
                0.0205078125,
                0.028749998658895494,
                0.0
            ],
            "min": [
                0.0016406255308538676,
                -0.00046874998952262104,
                -0.009999999776482582
            ]
        },
        {
            "bufferView": 17,
            "componentType": 5126,
            "count": 6156,
            "type": "VEC3"
        },
        {
            "bufferView": 18,
            "componentType": 5126,
            "count": 6156,
            "type": "VEC2"
        },
        {
            "bufferView": 19,
            "componentType": 5125,
            "count": 3072,
            "type": "SCALAR",
            "max": [
                6155.0
            ],
            "min": [
                2.0
            ]
        },
        {
            "bufferView": 20,
            "componentType": 5125,
            "count": 1542,
            "type": "SCALAR",
            "max": [
                6147.0
            ],
            "min": [
                4.0
            ]
        },
        {
            "bufferView": 21,
            "componentType": 5125,
            "count": 1542,
            "type": "SCALAR",
            "max": [
                6150.0
            ],
            "min": [
                0.0
            ]
        },
        {
            "bufferView": 22,
            "componentType": 5126,
            "count": 34824,
            "type": "VEC3",
            "max": [
                0.594775378704071,
                0.09470702707767487,
                0.0
            ],
            "min": [
                0.005966796539723873,
                -0.0015234374441206456,
                -0.009999999776482582
            ]
        },
        {
            "bufferView": 23,
            "componentType": 5126,
            "count": 34824,
            "type": "VEC3"
        },
        {
            "bufferView": 24,
            "componentType": 5126,
            "count": 34824,
            "type": "VEC2"
        },
        {
            "bufferView": 25,
            "componentType": 5125,
            "count": 17454,
            "type": "SCALAR",
            "max": [
                34822.0
            ],
            "min": [
                1.0
            ]
        },
        {
            "bufferView": 26,
            "componentType": 5125,
            "count": 8685,
            "type": "SCALAR",
            "max": [
                34823.0
            ],
            "min": [
                2.0
            ]
        },
        {
            "bufferView": 27,
            "componentType": 5125,
            "count": 8685,
            "type": "SCALAR",
            "max": [
                34818.0
            ],
            "min": [
                0.0
            ]
        }
    ],
    "bufferViews": [
        {
            "buffer": 0,
            "byteOffset": 0,
            "byteLength": 114048,
            "target": 34962
        },
        {
            "buffer": 0,
            "byteOffset": 114048,
            "byteLength": 114048,
            "target": 34962
        },
        {
            "buffer": 0,
            "byteOffset": 228096,
            "byteLength": 76032,
            "target": 34962
        },
        {
            "buffer": 0,
            "byteOffset": 304128,
            "byteLength": 216336,
            "target": 34963
        },
        {
            "buffer": 0,
            "byteOffset": 520464,
            "byteLength": 57600,
            "target": 34962
        },
        {
            "buffer": 0,
            "byteOffset": 578064,
            "byteLength": 57600,
            "target": 34962
        },
        {
            "buffer": 0,
            "byteOffset": 635664,
            "byteLength": 38400,
            "target": 34962
        },
        {
            "buffer": 0,
            "byteOffset": 674064,
            "byteLength": 9600,
            "target": 34963
        },
        {
            "buffer": 0,
            "byteOffset": 683664,
            "byteLength": 4800,
            "target": 34963
        },
        {
            "buffer": 0,
            "byteOffset": 688464,
            "byteLength": 4800,
            "target": 34963
        },
        {
            "buffer": 0,
            "byteOffset": 693264,
            "byteLength": 236160,
            "target": 34962
        },
        {
            "buffer": 0,
            "byteOffset": 929424,
            "byteLength": 236160,
            "target": 34962
        },
        {
            "buffer": 0,
            "byteOffset": 1165584,
            "byteLength": 157440,
            "target": 34962
        },
        {
            "buffer": 0,
            "byteOffset": 1323024,
            "byteLength": 39432,
            "target": 34963
        },
        {
            "buffer": 0,
            "byteOffset": 1362456,
            "byteLength": 19644,
            "target": 34963
        },
        {
            "buffer": 0,
            "byteOffset": 1382100,
            "byteLength": 19644,
            "target": 34963
        },
        {
            "buffer": 0,
            "byteOffset": 1401744,
            "byteLength": 73872,
            "target": 34962
        },
        {
            "buffer": 0,
            "byteOffset": 1475616,
            "byteLength": 73872,
            "target": 34962
        },
        {
            "buffer": 0,
            "byteOffset": 1549488,
            "byteLength": 49248,
            "target": 34962
        },
        {
            "buffer": 0,
            "byteOffset": 1598736,
            "byteLength": 12288,
            "target": 34963
        },
        {
            "buffer": 0,
            "byteOffset": 1611024,
            "byteLength": 6168,
            "target": 34963
        },
        {
            "buffer": 0,
            "byteOffset": 1617192,
            "byteLength": 6168,
            "target": 34963
        },
        {
            "buffer": 0,
            "byteOffset": 1623360,
            "byteLength": 417888,
            "target": 34962
        },
        {
            "buffer": 0,
            "byteOffset": 2041248,
            "byteLength": 417888,
            "target": 34962
        },
        {
            "buffer": 0,
            "byteOffset": 2459136,
            "byteLength": 278592,
            "target": 34962
        },
        {
            "buffer": 0,
            "byteOffset": 2737728,
            "byteLength": 69816,
            "target": 34963
        },
        {
            "buffer": 0,
            "byteOffset": 2807544,
            "byteLength": 34740,
            "target": 34963
        },
        {
            "buffer": 0,
            "byteOffset": 2842284,
            "byteLength": 34740,
            "target": 34963
        }
    ],
    "buffers": [
        {
            "byteLength": 2877024,
            "uri": "oxygen_binary.bin"
        }
    ],
    "cameras": [
        {
            "perspective": {
                "znear": 0.00001002445333142532,
                "yfov": 0.6164220571517944,
                "zfar": 2.0,
                "aspectRatio": 1.3333333730697632
            },
            "type": "perspective",
            "name": "render_camera"
        },
        {
            "perspective": {
                "znear": 0.00001002445333142532,
                "yfov": 0.6164220571517944,
                "zfar": 2.0,
                "aspectRatio": 1.3333333730697632
            },
            "type": "perspective",
            "name": "render_camera3"
        }
    ],
    "materials": [
        {
            "pbrMetallicRoughness": {
                "metallicFactor": 0.0,
                "roughnessFactor": 0.0
            },
            "emissiveFactor": [
                0.5099999904632568,
                0.5099999904632568,
                0.5099999904632568
            ],
            "name": "Kunststoff",
            "doubleSided": true
        },
        {
            "pbrMetallicRoughness": {
                "baseColorFactor": [
                    0.6307569742202759,
                    0.6307569742202759,
                    0.6307569742202759,
                    1.0
                ],
                "metallicFactor": 0.0,
                "roughnessFactor": 0.4000000059604645
            },
            "name": "Standardmaterial 5",
            "doubleSided": true
        },
        {
            "pbrMetallicRoughness": {
                "baseColorFactor": [
                    0.0,
                    0.0,
                    0.0,
                    1.0
                ],
                "metallicFactor": 0.0,
                "roughnessFactor": 0.0
            },
            "name": "Standardmaterial 6",
            "doubleSided": true
        }
    ],
    "meshes": [
        {
            "name": "Abgerundeter W-C3-BCrfel, flach",
            "primitives": [
                {
                    "attributes": {
                        "POSITION": 0,
                        "NORMAL": 1,
                        "TEXCOORD_0": 2
                    },
                    "indices": 3,
                    "material": 0
                }
            ]
        },
        {
            "name": "TextMesh#",
            "primitives": [
                {
                    "attributes": {
                        "NORMAL": 5,
                        "POSITION": 4,
                        "TEXCOORD_0": 6
                    },
                    "indices": 7,
                    "material": 1
                },
                {
                    "attributes": {
                        "POSITION": 4,
                        "NORMAL": 5,
                        "TEXCOORD_0": 6
                    },
                    "indices": 8,
                    "material": 2
                },
                {
                    "attributes": {
                        "NORMAL": 5,
                        "POSITION": 4,
                        "TEXCOORD_0": 6
                    },
                    "indices": 9,
                    "material": 1
                }
            ]
        },
        {
            "name": "TextMesh#",
            "primitives": [
                {
                    "attributes": {
                        "POSITION": 10,
                        "NORMAL": 11,
                        "TEXCOORD_0": 12
                    },
                    "indices": 13,
                    "material": 1
                },
                {
                    "attributes": {
                        "NORMAL": 11,
                        "POSITION": 10,
                        "TEXCOORD_0": 12
                    },
                    "indices": 14,
                    "material": 2
                },
                {
                    "attributes": {
                        "POSITION": 10,
                        "NORMAL": 11,
                        "TEXCOORD_0": 12
                    },
                    "indices": 15,
                    "material": 1
                }
            ]
        },
        {
            "name": "TextMesh#",
            "primitives": [
                {
                    "attributes": {
                        "NORMAL": 17,
                        "POSITION": 16,
                        "TEXCOORD_0": 18
                    },
                    "indices": 19,
                    "material": 1
                },
                {
                    "attributes": {
                        "POSITION": 16,
                        "NORMAL": 17,
                        "TEXCOORD_0": 18
                    },
                    "indices": 20,
                    "material": 2
                },
                {
                    "attributes": {
                        "NORMAL": 17,
                        "POSITION": 16,
                        "TEXCOORD_0": 18
                    },
                    "indices": 21,
                    "material": 1
                }
            ]
        },
        {
            "name": "TextMesh#",
            "primitives": [
                {
                    "attributes": {
                        "POSITION": 22,
                        "NORMAL": 23,
                        "TEXCOORD_0": 24
                    },
                    "indices": 25,
                    "material": 1
                },
                {
                    "attributes": {
                        "NORMAL": 23,
                        "POSITION": 22,
                        "TEXCOORD_0": 24
                    },
                    "indices": 26,
                    "material": 2
                },
                {
                    "attributes": {
                        "POSITION": 22,
                        "NORMAL": 23,
                        "TEXCOORD_0": 24
                    },
                    "indices": 27,
                    "material": 1
                }
            ]
        }
    ],
    "nodes": [
        {
            "translation": [
                0.4399969279766083,
                2.077676296234131,
                -0.9961391091346741
            ],
            "rotation": [
                0.020488010719418527,
                0.8609012365341187,
                0.5071684122085571,
                -0.034777794033288959
            ],
            "scale": [
                0.9999999403953552,
                1.0,
                0.9999998807907105
            ],
            "camera": 0,
            "name": "render_camera_n3d"
        },
        {
            "translation": [
                0.19416376948356629,
                0.009153633378446103,
                0.038777731359004977
            ],
            "rotation": [
                -2.512142808702776e-15,
                -0.7071067690849304,
                2.512154243647564e-15,
                0.7071067690849304
            ],
            "scale": [
                1.9999995231628419,
                0.09999997913837433,
                1.499999761581421
            ],
            "mesh": 0,
            "name": "Abgerundeter Würfel, flach"
        },
        {
            "translation": [
                0.11189465969800949,
                0.01972557045519352,
                0.11896514892578125
            ],
            "rotation": [
                -0.7071067690849304,
                -1.1309315084417904e-7,
                -4.9872841856313246e-8,
                0.7071068286895752
            ],
            "scale": [
                1.499999761581421,
                1.4999996423721314,
                1.4999998807907105
            ],
            "mesh": 1,
            "name": "Text 3"
        },
        {
            "translation": [
                0.23337827622890473,
                0.012000007554888726,
                -0.08957107365131378
            ],
            "rotation": [
                -0.7071067690849304,
                -1.3278679489303614e-7,
                -2.7419602588452109e-8,
                0.7071068286895752
            ],
            "scale": [
                0.6999998092651367,
                0.6999997496604919,
                0.6999999284744263
            ],
            "mesh": 2,
            "name": "Text 4"
        },
        {
            "translation": [
                0.06548743695020676,
                0.01172557845711708,
                -0.08532893657684326
            ],
            "rotation": [
                -0.7071067690849304,
                -1.1133703026189323e-7,
                -4.811671772131376e-8,
                0.7071068286895752
            ],
            "scale": [
                0.9999998807907105,
                0.9999998211860657,
                0.9999999403953552
            ],
            "mesh": 3,
            "name": "Text 2"
        },
        {
            "translation": [
                0.11189465969800949,
                0.01172557845711708,
                0.22936680912971497
            ],
            "rotation": [
                -0.7071067690849304,
                -1.1184518200479943e-7,
                -4.8624865911506279e-8,
                0.7071068286895752
            ],
            "scale": [
                0.2725576162338257,
                0.2725575864315033,
                0.27255767583847048
            ],
            "mesh": 4,
            "name": "Text"
        },
        {
            "translation": [
                0.863536536693573,
                2.3807787895202638,
                0.19444458186626435
            ],
            "rotation": [
                -0.4675975739955902,
                0.5298736691474915,
                0.46349453926086428,
                0.5345644950866699
            ],
            "camera": 1,
            "name": "Ansicht 1"
        }
    ],
    "scenes": [
        {
            "nodes": [
                0,
                1,
                2,
                3,
                4,
                5,
                6
            ],
            "name": "scene"
        }
    ],
    "scene": 0,
    "extensions": {
        "KHR_xmp": {
            "@context": {
                "dc": "http://purl.org/dc/elements/1.1/"
            },
            "packets": [
                {
                    "dc:date": "2021-06-20T18:55:03.513+02:00",
                    "dc:format": "model/gltf+json",
                    "dc:title": "oxygen.dn",
                    "xmp:CreatorTool": "AdobeDCXTest"
                }
            ]
        }
    },
    "extensionsUsed": [
        "KHR_xmp"
    ]
}